<?xml version="1.0" encoding="UTF-8" standalone="no"?>
<!-- Created with Inkscape (http://www.inkscape.org/) -->
<svg xmlns:dc="http://purl.org/dc/elements/1.1/" xmlns:cc="http://web.resource.org/cc/" xmlns:rdf="http://www.w3.org/1999/02/22-rdf-syntax-ns#" xmlns:svg="http://www.w3.org/2000/svg" xmlns="http://www.w3.org/2000/svg" xmlns:xlink="http://www.w3.org/1999/xlink" xmlns:sodipodi="http://sodipodi.sourceforge.net/DTD/sodipodi-0.dtd" xmlns:inkscape="http://www.inkscape.org/namespaces/inkscape" width="96" height="96" id="svg2" sodipodi:version="0.32" inkscape:version="0.44" version="1.0" sodipodi:docbase="C:\_me\work\cotw23" sodipodi:docname="paint3.svg" inkscape:export-filename="C:\tmp\paint.png" inkscape:export-xdpi="1999.887" inkscape:export-ydpi="1999.887">
  <defs id="defs4">
    <linearGradient inkscape:collect="always" xlink:href="#linearGradient20004" id="linearGradient23563" x1="54.367817" y1="58.241982" x2="50.455631" y2="55.434052" gradientUnits="userSpaceOnUse" gradientTransform="matrix(1.007815,6.100062e-5,6.100062e-5,1.007036,-0.44172,-0.377521)"/>
    <linearGradient inkscape:collect="always" xlink:href="#linearGradient20004" id="linearGradient24456" x1="48.537666" y1="66.009323" x2="45.046711" y2="63.701019" gradientUnits="userSpaceOnUse"/>
    <linearGradient id="linearGradient3680">
      <stop style="stop-color:white;stop-opacity:1;" offset="0" id="stop3684"/>
      <stop id="stop3686" offset="1" style="stop-color:white;stop-opacity:0;"/>
    </linearGradient>
    <linearGradient id="linearGradient15202">
      <stop id="stop29393" offset="0" style="stop-color:#c65527;stop-opacity:1;"/>
      <stop id="stop24949" offset="0.25" style="stop-color:#8c3a16;stop-opacity:1;"/>
      <stop style="stop-color:#7e3910;stop-opacity:1;" offset="0.375" id="stop24955"/>
      <stop id="stop17865" offset="0.5" style="stop-color:#4f1500;stop-opacity:1;"/>
      <stop style="stop-color:#340e00;stop-opacity:1;" offset="1" id="stop24953"/>
    </linearGradient>
    <linearGradient id="linearGradient15194">
      <stop style="stop-color:black;stop-opacity:1;" offset="0" id="stop15196"/>
      <stop style="stop-color:black;stop-opacity:0;" offset="1" id="stop15198"/>
    </linearGradient>
    <linearGradient id="linearGradient28891">
      <stop id="stop28893" offset="0" style="stop-color:#ff5151;stop-opacity:1;"/>
      <stop style="stop-color:#ae0000;stop-opacity:1;" offset="0.5" id="stop30675"/>
      <stop id="stop45737" offset="1" style="stop-color:#d20000;stop-opacity:1;"/>
    </linearGradient>
    <linearGradient id="linearGradient20004">
      <stop id="stop22670" offset="0" style="stop-color:white;stop-opacity:1;"/>
      <stop style="stop-color:#acacac;stop-opacity:1;" offset="0.25" id="stop12715"/>
      <stop style="stop-color:#999;stop-opacity:1;" offset="0.5" id="stop4577"/>
      <stop style="stop-color:white;stop-opacity:1;" offset="1" id="stop20008"/>
    </linearGradient>
    <linearGradient id="linearGradient10796">
      <stop style="stop-color:#c3c3c3;stop-opacity:1;" offset="0" id="stop10798"/>
      <stop id="stop6514" offset="0.5" style="stop-color:black;stop-opacity:1;"/>
      <stop style="stop-color:#b8b8b8;stop-opacity:1;" offset="1" id="stop10800"/>
    </linearGradient>
    <radialGradient inkscape:collect="always" xlink:href="#linearGradient3680" id="radialGradient3688" cx="50.391884" cy="51.225243" fx="50.391884" fy="51.225243" r="7.8915" gradientTransform="matrix(1.77479,-2.837431,0.186242,0.116493,-54.93396,202.5062)" gradientUnits="userSpaceOnUse"/>
    <radialGradient inkscape:collect="always" xlink:href="#linearGradient15202" id="radialGradient17300" gradientUnits="userSpaceOnUse" gradientTransform="matrix(-1.239798,-0.680862,1.976996,-3.599905,-78.64784,400.1394)" cx="38.19006" cy="81.957893" fx="38.19006" fy="81.957893" r="3.7346277"/>
    <linearGradient inkscape:collect="always" xlink:href="#linearGradient28891" id="linearGradient17302" gradientUnits="userSpaceOnUse" gradientTransform="translate(-0.134555,0.277475)" x1="81.483627" y1="7.6887078" x2="86.322388" y2="10.924789"/>
    <linearGradient inkscape:collect="always" xlink:href="#linearGradient28891" id="linearGradient17316" gradientUnits="userSpaceOnUse" gradientTransform="translate(-0.134555,0.277475)" x1="82.862732" y1="8.5179157" x2="86.322388" y2="10.924789"/>
    <radialGradient inkscape:collect="always" xlink:href="#linearGradient15202" id="radialGradient17318" gradientUnits="userSpaceOnUse" gradientTransform="matrix(-1.239798,-0.680862,1.976996,-3.599905,-78.64784,400.1394)" cx="38.19006" cy="81.957893" fx="38.19006" fy="81.957893" r="3.7346277"/>
    <linearGradient inkscape:collect="always" xlink:href="#linearGradient20004" id="linearGradient17320" gradientUnits="userSpaceOnUse" x1="48.210663" y1="68.078987" x2="43.784203" y2="65.040779"/>
    <radialGradient gradientUnits="userSpaceOnUse" gradientTransform="matrix(1.77479,-2.837431,0.186242,0.116493,-54.93396,202.5062)" r="7.8915" fy="51.225243" fx="50.391884" cy="51.225243" cx="50.391884" id="radialGradient2092" xlink:href="#linearGradient3680" inkscape:collect="always"/>
    <radialGradient gradientUnits="userSpaceOnUse" gradientTransform="matrix(-1.199527,-0.749539,2.176406,-3.482971,-96.16544,392.3552)" r="3.7346277" fy="81.957893" fx="38.19006" cy="81.957893" cx="38.19006" id="radialGradient18752" xlink:href="#linearGradient15202" inkscape:collect="always"/>
    <linearGradient gradientTransform="translate(-0.134555,0.277475)" gradientUnits="userSpaceOnUse" y2="10.924789" x2="86.322388" y1="7.6887078" x1="81.483627" id="linearGradient28903" xlink:href="#linearGradient28891" inkscape:collect="always"/>
    <linearGradient gradientUnits="userSpaceOnUse" y2="63.701019" x2="45.046711" y1="66.009323" x1="48.537666" id="linearGradient2088" xlink:href="#linearGradient20004" inkscape:collect="always"/>
    <linearGradient gradientTransform="matrix(1.007815,6.100062e-5,6.100062e-5,1.007036,-0.44172,-0.377521)" gradientUnits="userSpaceOnUse" y2="55.434052" x2="50.455631" y1="58.241982" x1="54.367817" id="linearGradient2086" xlink:href="#linearGradient20004" inkscape:collect="always"/>
    <linearGradient id="linearGradient2080">
      <stop id="stop2082" offset="0" style="stop-color:black;stop-opacity:1;"/>
      <stop id="stop2084" offset="1" style="stop-color:#b8b8b8;stop-opacity:1;"/>
    </linearGradient>
    <linearGradient id="linearGradient2072">
      <stop style="stop-color:#d0d0d0;stop-opacity:1;" offset="0" id="stop2074"/>
      <stop id="stop2076" offset="0.5" style="stop-color:#a8a8a8;stop-opacity:1;"/>
      <stop id="stop2078" offset="1" style="stop-color:white;stop-opacity:1;"/>
    </linearGradient>
    <linearGradient id="linearGradient2064">
      <stop style="stop-color:#ff5151;stop-opacity:1;" offset="0" id="stop2066"/>
      <stop id="stop2068" offset="0.5" style="stop-color:#ae0000;stop-opacity:1;"/>
      <stop style="stop-color:#d20000;stop-opacity:1;" offset="1" id="stop2070"/>
    </linearGradient>
    <linearGradient id="linearGradient2058">
      <stop id="stop2060" offset="0" style="stop-color:black;stop-opacity:1;"/>
      <stop id="stop2062" offset="1" style="stop-color:black;stop-opacity:0;"/>
    </linearGradient>
    <linearGradient id="linearGradient2046">
      <stop style="stop-color:#a34720;stop-opacity:1;" offset="0" id="stop2048"/>
      <stop style="stop-color:#8c3a16;stop-opacity:1;" offset="0.25" id="stop2050"/>
      <stop id="stop2052" offset="0.375" style="stop-color:#7e3910;stop-opacity:1;"/>
      <stop style="stop-color:#4f1500;stop-opacity:1;" offset="0.5" id="stop2054"/>
      <stop id="stop2056" offset="1" style="stop-color:#340e00;stop-opacity:1;"/>
    </linearGradient>
    <linearGradient id="linearGradient2040">
      <stop id="stop2042" offset="0" style="stop-color:white;stop-opacity:1;"/>
      <stop style="stop-color:white;stop-opacity:0;" offset="1" id="stop2044"/>
    </linearGradient>
    <radialGradient inkscape:collect="always" xlink:href="#linearGradient15202" id="radialGradient2112" gradientUnits="userSpaceOnUse" gradientTransform="matrix(-1.199527,-0.749539,2.176406,-3.482971,-96.74598,393.1622)" cx="38.19006" cy="81.957893" fx="38.19006" fy="81.957893" r="3.7346277"/>
  </defs>
  <sodipodi:namedview id="base" pagecolor="#ffffff" bordercolor="#666666" borderopacity="1.0" gridtolerance="10000" guidetolerance="10" objecttolerance="10" inkscape:pageopacity="0.0" inkscape:pageshadow="2" inkscape:zoom="12.125733" inkscape:cx="36.655557" inkscape:cy="15.658182" inkscape:document-units="px" inkscape:current-layer="layer1" width="96px" height="96px" showborder="false" borderlayer="false" inkscape:showpageshadow="false" showgrid="false" inkscape:window-width="1024" inkscape:window-height="721" inkscape:window-x="-4" inkscape:window-y="-4" showguides="true" inkscape:guide-bbox="true"/>
  <g inkscape:label="Layer 1" inkscape:groupmode="layer" id="layer1">
    <path style="fill:white;fill-opacity:1;fill-rule:evenodd;stroke:none;stroke-width:1.39999998;stroke-linecap:butt;stroke-linejoin:miter;stroke-miterlimit:4;stroke-dasharray:none;stroke-opacity:1" d="M 67.03324,29.213727 L 1.3184901,29.213727 L 1.3184901,94.650661 L 67.147574,94.650661 L 67.147574,56.421715" id="path2831" sodipodi:nodetypes="ccccc"/>
    <g id="g6368" transform="matrix(8.668815e-2,-0.181578,-0.180458,-8.722557e-2,47.08934,100.1163)" style="fill:#b3b3b3;stroke:none">
      <path sodipodi:nodetypes="ccsscc" id="path6370" d="M 55.890511,55.796824 C 84.795822,14.876981 87.319146,11.374147 124.40986,-45.697807 C 124.40986,-45.697807 125.32965,-47.655207 124.79829,-48.019029 C 124.288,-48.368416 122.86703,-47.346107 122.20255,-46.445587 C 81.795897,8.3040995 52.319081,52.918945 52.319081,52.918945 C 52.319081,52.918945 54.158031,52.761109 55.890511,55.796824 z " style="fill:#b3b3b3;fill-opacity:1;fill-rule:evenodd;stroke:none;stroke-width:0.1698287;stroke-linecap:butt;stroke-linejoin:miter;stroke-miterlimit:4;stroke-dasharray:none;stroke-opacity:1"/>
      <path style="fill:#b3b3b3;fill-opacity:1;fill-rule:evenodd;stroke:none;stroke-width:0.1698287;stroke-linecap:butt;stroke-linejoin:miter;stroke-miterlimit:4;stroke-dasharray:none;stroke-opacity:1" d="M 36.99216,77.680472 C 36.99216,77.680472 36.245598,77.248971 34.81994,80.030307 C 34.324286,80.997285 34.04036,82.874543 31.78824,85.92654 C 31.78824,85.92654 40.0714,81.88156 39.19214,79.362811 C 39.19214,79.362811 38.6745,77.874589 36.99216,77.680472 z " id="path6372" sodipodi:nodetypes="csccc"/>
      <path style="fill:#b3b3b3;fill-opacity:1;fill-rule:evenodd;stroke:none;stroke-width:0.1698287;stroke-linecap:butt;stroke-linejoin:miter;stroke-miterlimit:4;stroke-dasharray:none;stroke-opacity:1" d="M 54.35196,58.381116 C 55.784086,56.818022 56.083654,55.697748 56.083654,55.697748 L 54.416664,54.205085 L 55.075843,54.816215 L 56.083694,55.688716 L 56.557082,55.323072 C 54.588728,53.183644 52.497743,52.417862 52.497743,52.417862 L 52.257407,53.024182 L 54.429123,54.186361 L 52.258167,53.023547 C 52.258167,53.023547 51.347266,53.926683 50.434091,55.723553 L 52.713731,57.087163 L 50.437309,55.72099 L 37.083003,77.691225 C 38.413434,78.270923 39.209061,79.142861 39.209061,79.142861 L 54.348998,58.379736 L 52.700876,57.096739 L 54.35196,58.381116 z " id="path6374" sodipodi:nodetypes="cccccccccccccccccc"/>
    </g>
    <path style="fill:none;fill-rule:evenodd;stroke:black;stroke-width:1.4;stroke-linecap:butt;stroke-linejoin:miter;stroke-miterlimit:4;stroke-dasharray:none;stroke-opacity:1" d="M 47.911775,28.630534 L 0.71362174,28.630534 L 0.71362174,95.304505 L 67.738507,95.304505 L 67.738507,56.352869" id="path17057"/>
    <g id="g1960" transform="matrix(0.587052,-4.570673e-2,4.570673e-2,0.587052,11.60513,37.66296)" style="fill:white;stroke:none">
      <path sodipodi:nodetypes="ccsscc" id="path1962" d="M 55.890511,55.796824 C 84.795822,14.876981 87.319146,11.374147 124.40986,-45.697807 C 124.40986,-45.697807 125.32965,-47.655207 124.79829,-48.019029 C 124.288,-48.368416 122.86703,-47.346107 122.20255,-46.445587 C 81.795897,8.3040995 52.319081,52.918945 52.319081,52.918945 C 52.319081,52.918945 54.158031,52.761109 55.890511,55.796824 z " style="fill:white;fill-opacity:1;fill-rule:evenodd;stroke:none;stroke-width:0.1698287;stroke-linecap:butt;stroke-linejoin:miter;stroke-miterlimit:4;stroke-dasharray:none;stroke-opacity:1"/>
      <path style="fill:white;fill-opacity:1;fill-rule:evenodd;stroke:none;stroke-width:0.1698287;stroke-linecap:butt;stroke-linejoin:miter;stroke-miterlimit:4;stroke-dasharray:none;stroke-opacity:1" d="M 36.99216,77.680472 C 36.99216,77.680472 36.245598,77.248971 34.81994,80.030307 C 34.324286,80.997285 34.04036,82.874543 31.78824,85.92654 C 31.78824,85.92654 40.0714,81.88156 39.19214,79.362811 C 39.19214,79.362811 38.6745,77.874589 36.99216,77.680472 z " id="path1964" sodipodi:nodetypes="csccc"/>
      <path style="fill:white;fill-opacity:1;fill-rule:evenodd;stroke:none;stroke-width:0.1698287;stroke-linecap:butt;stroke-linejoin:miter;stroke-miterlimit:4;stroke-dasharray:none;stroke-opacity:1" d="M 54.35196,58.381116 C 55.784086,56.818022 56.083654,55.697748 56.083654,55.697748 L 54.416664,54.205085 L 55.075843,54.816215 L 56.083694,55.688716 L 56.557082,55.323072 C 54.588728,53.183644 52.497743,52.417862 52.497743,52.417862 L 52.257407,53.024182 L 54.429123,54.186361 L 52.258167,53.023547 C 52.258167,53.023547 51.347266,53.926683 50.434091,55.723553 L 52.713731,57.087163 L 50.437309,55.72099 L 37.083003,77.691225 C 38.413434,78.270923 39.209061,79.142861 39.209061,79.142861 L 54.348998,58.379736 L 52.700876,57.096739 L 54.35196,58.381116 z " id="path1966" sodipodi:nodetypes="cccccccccccccccccc"/>
    </g>
    <g id="g7267" transform="translate(2.783214,1.484447)">
      <path sodipodi:nodetypes="ccsccccccccccccccccccccsccccccccccccccccccccc" d="M 25.470634,43.210426 C 24.848658,42.544728 19.925452,45.922661 19.69234,46.541312 C 13.922403,50.120953 21.032994,46.22429 22.218483,45.80961 C 27.656647,43.90736 32.563889,40.737136 37.726593,38.181239 C 40.70629,37.00066 43.785005,34.858109 46.966903,34.857221 C 45.353133,39.935885 36.544319,43.337171 32.529586,45.595271 C 25.871595,49.093142 18.968851,52.258463 11.719384,54.31929 C 6.0780355,54.450308 15.833396,50.064099 16.257329,49.83278 C 19.269777,48.592061 23.794919,46.68365 27.081477,46.577062 C 29.568302,46.840482 25.342275,49.835675 24.723655,51.614637 C 23.870688,53.616331 23.050587,56.671715 23.785484,58.684914 C 25.676161,59.349152 29.622132,57.720026 31.395035,56.952855 C 33.831175,56.887544 29.495754,59.404041 28.847295,60.059829 C 26.621588,62.279945 16.275468,65.943956 14.401155,68.466041 C 14.763132,68.735666 17.50978,68.754201 18.445938,68.7148 C 20.919528,68.856137 21.958082,68.962735 24.123293,70.193898 C 25.628355,71.244903 25.143236,72.22984 24.31789,73.488468 C 23.404199,74.200006 22.604417,75.610418 22.114419,76.548611 C 23.222633,77.683886 25.207735,79.224381 26.589107,79.970256 C 27.714612,80.562541 27.663776,80.627531 28.202276,81.755849 C 28.240067,82.617056 28.32796,83.999273 28.344845,84.860594 C 28.298588,85.452482 32.347362,84.249137 32.619252,84.581787 L 32.535078,84.957673 C 32.158451,84.521763 28.667867,86.095881 28.200191,84.081229 C 28.009292,83.258876 28.216144,82.410691 28.261911,81.56698 C 27.710728,80.602643 27.069533,79.831304 25.962186,79.329616 C 24.474958,78.514416 22.776705,77.889965 21.636065,76.607153 C 21.76692,75.30413 22.667437,74.72809 23.677012,73.863818 C 24.584357,72.758687 25.023266,72.066842 23.815011,70.972541 C 21.728945,69.731074 19.354221,69.279373 16.940955,69.240236 C 15.638146,69.330198 13.122879,70.191377 12.764327,68.775533 C 14.58507,66.088914 24.230941,64.099599 26.360651,61.676858 C 26.797995,61.21898 30.370726,58.047488 29.156709,58.357102 C 27.337192,59.069872 25.041702,60.136444 23.226759,58.967727 C 22.038962,57.014934 23.348744,54.78554 23.972246,52.825131 C 24.489324,51.289437 28.633228,47.132158 26.422618,46.925137 C 23.199092,47.016495 16.300944,49.676596 13.373914,50.950715 C 17.476039,48.242504 6.5650165,54.505509 11.651477,54.158972 C 18.759183,52.364134 28.073269,47.396797 34.528776,43.981374 C 38.007529,42.107972 44.263402,38.115204 46.763451,34.999273 C 43.797144,35.163455 36.878094,39.0997 34.117625,40.14815 C 28.835747,42.747247 24.902344,45.314377 19.607494,47.886851 C 19.046836,48.150246 15.492765,49.822177 16.937935,47.844715 C 17.577608,47.316155 24.295209,43.458842 24.944989,42.944007 C 24.839428,42.892426 24.875086,42.911453 25.470634,43.210426 z " id="path6366" style="fill:#ccc;fill-opacity:1;fill-rule:nonzero;stroke:none;stroke-width:5;stroke-linecap:round;stroke-linejoin:round;stroke-miterlimit:4;stroke-dasharray:none;stroke-dashoffset:10;stroke-opacity:1"/>
      <path sodipodi:nodetypes="ccsccccccccccccccccccccsccccccccccccccccccccc" d="M 26.085453,43.650259 C 25.463477,42.984561 20.540271,46.362494 20.307159,46.981145 C 14.537222,50.560786 21.647813,46.664123 22.833302,46.249443 C 28.271466,44.347193 33.178708,41.176969 38.341412,38.621072 C 41.321109,37.440493 44.399824,35.297942 47.581722,35.297054 C 45.967952,40.375718 37.159138,43.777004 33.144405,46.035104 C 26.486414,49.532975 19.58367,52.698296 12.334203,54.759123 C 6.6928547,54.890141 16.448215,50.503932 16.872148,50.272613 C 19.884596,49.031894 24.409738,47.123483 27.696296,47.016895 C 30.183121,47.280315 25.957094,50.275508 25.338474,52.05447 C 24.485507,54.056164 23.665406,57.111548 24.400303,59.124747 C 26.29098,59.788985 30.236951,58.159859 32.009854,57.392688 C 34.445994,57.327377 30.110573,59.843874 29.462114,60.499662 C 27.236407,62.719778 16.890287,66.383789 15.015974,68.905874 C 15.377951,69.175499 18.124599,69.194034 19.060757,69.154633 C 21.534347,69.29597 22.572901,69.402568 24.738112,70.633731 C 26.243174,71.684736 25.758055,72.669673 24.932709,73.928301 C 24.019018,74.639839 23.219236,76.050251 22.729238,76.988444 C 23.837452,78.123719 25.822554,79.664214 27.203926,80.410089 C 28.329431,81.002374 28.278595,81.067364 28.817095,82.195682 C 28.854886,83.056889 28.942779,84.439106 28.959664,85.300427 C 28.913407,85.892315 32.962181,84.68897 33.234071,85.02162 L 33.149897,85.397506 C 32.77327,84.961596 29.282686,86.535714 28.81501,84.521062 C 28.624111,83.698709 28.830963,82.850524 28.87673,82.006813 C 28.325547,81.042476 27.684352,80.271137 26.577005,79.769449 C 25.089777,78.954249 23.391524,78.329798 22.250884,77.046986 C 22.381739,75.743963 23.282256,75.167923 24.291831,74.303651 C 25.199176,73.19852 25.638085,72.506675 24.42983,71.412374 C 22.343764,70.170907 19.96904,69.719206 17.555774,69.680069 C 16.252965,69.770031 13.737698,70.63121 13.379146,69.215366 C 15.199889,66.528747 24.84576,64.539432 26.97547,62.116691 C 27.412814,61.658813 30.985545,58.487321 29.771528,58.796935 C 27.952011,59.509705 25.656521,60.576277 23.841578,59.40756 C 22.653781,57.454767 23.963563,55.225373 24.587065,53.264964 C 25.104143,51.72927 29.248047,47.571991 27.037437,47.36497 C 23.813911,47.456328 16.915763,50.116429 13.988733,51.390548 C 18.090858,48.682337 7.1798365,54.945342 12.266296,54.598805 C 19.374002,52.803967 28.688088,47.83663 35.143595,44.421207 C 38.622348,42.547805 44.878221,38.555037 47.37827,35.439106 C 44.411963,35.603288 37.492913,39.539533 34.732444,40.587983 C 29.450566,43.18708 25.517163,45.75421 20.222313,48.326684 C 19.661655,48.590079 16.107584,50.26201 17.552754,48.284548 C 18.192427,47.755988 24.910028,43.898675 25.559808,43.38384 C 25.454247,43.332259 25.489905,43.351286 26.085453,43.650259 z " id="path17962" style="fill:black;fill-opacity:1;fill-rule:nonzero;stroke:none;stroke-width:5;stroke-linecap:round;stroke-linejoin:round;stroke-miterlimit:4;stroke-dasharray:none;stroke-dashoffset:10;stroke-opacity:1"/>
    </g>
    <text xml:space="preserve" style="font-size:12px;font-style:normal;font-weight:normal;fill:black;fill-opacity:1;stroke:none;stroke-width:1px;stroke-linecap:butt;stroke-linejoin:miter;stroke-opacity:1;font-family:Bitstream Vera Sans" x="-8.1199102" y="139.8475" id="text12628">
      <tspan sodipodi:role="line" id="tspan12630" x="-8.1199102" y="139.8475"/>
    </text>
    <g id="g1946" transform="matrix(0.587052,-4.570673e-2,4.570673e-2,0.587052,12.03576,37.66591)" style="fill:black">
      <path sodipodi:nodetypes="ccsscc" id="path1948" d="M 55.890511,55.796824 C 84.795822,14.876981 87.319146,11.374147 124.40986,-45.697807 C 124.40986,-45.697807 125.32965,-47.655207 124.79829,-48.019029 C 124.288,-48.368416 122.86703,-47.346107 122.20255,-46.445587 C 81.795897,8.3040995 52.319081,52.918945 52.319081,52.918945 C 52.319081,52.918945 54.158031,52.761109 55.890511,55.796824 z " style="fill:black;fill-opacity:1;fill-rule:evenodd;stroke:black;stroke-width:0.1698287;stroke-linecap:butt;stroke-linejoin:miter;stroke-miterlimit:4;stroke-dasharray:none;stroke-opacity:1"/>
      <path style="fill:black;fill-opacity:1;fill-rule:evenodd;stroke:black;stroke-width:0.1698287;stroke-linecap:butt;stroke-linejoin:miter;stroke-miterlimit:4;stroke-dasharray:none;stroke-opacity:1" d="M 36.99216,77.680472 C 36.99216,77.680472 36.245598,77.248971 34.81994,80.030307 C 34.324286,80.997285 34.04036,82.874543 31.78824,85.92654 C 31.78824,85.92654 40.0714,81.88156 39.19214,79.362811 C 39.19214,79.362811 38.6745,77.874589 36.99216,77.680472 z " id="path1950" sodipodi:nodetypes="csccc"/>
      <path style="fill:black;fill-opacity:1;fill-rule:evenodd;stroke:black;stroke-width:0.1698287;stroke-linecap:butt;stroke-linejoin:miter;stroke-miterlimit:4;stroke-dasharray:none;stroke-opacity:1" d="M 54.35196,58.381116 C 55.784086,56.818022 56.083654,55.697748 56.083654,55.697748 L 54.416664,54.205085 L 55.075843,54.816215 L 56.083694,55.688716 L 56.557082,55.323072 C 54.588728,53.183644 52.497743,52.417862 52.497743,52.417862 L 52.257407,53.024182 L 54.429123,54.186361 L 52.258167,53.023547 C 52.258167,53.023547 51.347266,53.926683 50.434091,55.723553 L 52.713731,57.087163 L 50.437309,55.72099 L 37.083003,77.691225 C 38.413434,78.270923 39.209061,79.142861 39.209061,79.142861 L 54.348998,58.379736 L 52.700876,57.096739 L 54.35196,58.381116 z " id="path1952" sodipodi:nodetypes="cccccccccccccccccc"/>
    </g>
    <g id="g17308" transform="matrix(0.587052,-4.570673e-2,4.570673e-2,0.587052,11.74235,37.80429)">
      <path sodipodi:nodetypes="ccsscc" id="path17310" d="M 55.890511,55.796824 C 84.795822,14.876981 87.319146,11.374147 124.40986,-45.697807 C 124.40986,-45.697807 125.32965,-47.655207 124.79829,-48.019029 C 124.288,-48.368416 122.86703,-47.346107 122.20255,-46.445587 C 81.795897,8.3040995 52.319081,52.918945 52.319081,52.918945 C 52.319081,52.918945 54.158031,52.761109 55.890511,55.796824 z " style="fill:url(#linearGradient17316);fill-opacity:1;fill-rule:evenodd;stroke:black;stroke-width:0.1698287;stroke-linecap:butt;stroke-linejoin:miter;stroke-miterlimit:4;stroke-dasharray:none;stroke-opacity:1"/>
      <path style="fill:url(#radialGradient2112);fill-opacity:1;fill-rule:evenodd;stroke:black;stroke-width:0.1698287;stroke-linecap:butt;stroke-linejoin:miter;stroke-miterlimit:4;stroke-dasharray:none;stroke-opacity:1" d="M 36.99216,77.680472 C 36.99216,77.680472 36.245598,77.248971 34.81994,80.030307 C 34.324286,80.997285 34.04036,82.874543 31.78824,85.92654 C 31.78824,85.92654 40.0714,81.88156 39.19214,79.362811 C 39.19214,79.362811 38.6745,77.874589 36.99216,77.680472 z " id="path2110" sodipodi:nodetypes="csccc"/>
      <path style="fill:url(#linearGradient17320);fill-opacity:1;fill-rule:evenodd;stroke:black;stroke-width:0.1698287;stroke-linecap:butt;stroke-linejoin:miter;stroke-miterlimit:4;stroke-dasharray:none;stroke-opacity:1" d="M 54.35196,58.381116 C 55.784086,56.818022 56.083654,55.697748 56.083654,55.697748 L 54.416664,54.205085 L 55.075843,54.816215 L 56.083694,55.688716 L 56.557082,55.323072 C 54.588728,53.183644 52.497743,52.417862 52.497743,52.417862 L 52.257407,53.024182 L 54.429123,54.186361 L 52.258167,53.023547 C 52.258167,53.023547 51.347266,53.926683 50.434091,55.723553 L 52.713731,57.087163 L 50.437309,55.72099 L 37.083003,77.691225 C 38.413434,78.270923 39.209061,79.142861 39.209061,79.142861 L 54.348998,58.379736 L 52.700876,57.096739 L 54.35196,58.381116 z " id="path17314" sodipodi:nodetypes="cccccccccccccccccc"/>
    </g>
  </g>
  <metadata>
    <rdf:RDF>
      <cc:Work>
        <dc:format>image/svg+xml</dc:format>
        <dc:type rdf:resource="http://purl.org/dc/dcmitype/StillImage"/>
        <cc:license rdf:resource="http://creativecommons.org/licenses/publicdomain/"/>
        <dc:publisher>
          <cc:Agent rdf:about="http://openclipart.org/">
            <dc:title>Open Clip Art Library</dc:title>
          </cc:Agent>
        </dc:publisher>
        <dc:title>Brush icon</dc:title>
        <dc:date>2009-04-05T20:58:00</dc:date>
        <dc:description/>
        <dc:source>http://openclipart.org/detail/24109/brush-icon-by-wooptoo</dc:source>
        <dc:creator>
          <cc:Agent>
            <dc:title>wooptoo</dc:title>
          </cc:Agent>
        </dc:creator>
        <dc:subject>
          <rdf:Bag>
            <rdf:li>brush</rdf:li>
            <rdf:li>brush</rdf:li>
            <rdf:li>clip art</rdf:li>
            <rdf:li>clipart</rdf:li>
            <rdf:li>icon</rdf:li>
            <rdf:li>icon</rdf:li>
            <rdf:li>image</rdf:li>
            <rdf:li>media</rdf:li>
            <rdf:li>png</rdf:li>
            <rdf:li>public domain</rdf:li>
            <rdf:li>svg</rdf:li>
          </rdf:Bag>
        </dc:subject>
      </cc:Work>
      <cc:License rdf:about="http://creativecommons.org/licenses/publicdomain/">
        <cc:permits rdf:resource="http://creativecommons.org/ns#Reproduction"/>
        <cc:permits rdf:resource="http://creativecommons.org/ns#Distribution"/>
        <cc:permits rdf:resource="http://creativecommons.org/ns#DerivativeWorks"/>
      </cc:License>
    </rdf:RDF>
  </metadata>
</svg>
